# File generated by FabConvert.com - Free Image and 3D model conversion tools

mtllib 3d-2.mtl

o obj1
v 0.127 0.68419999 -0.74860001
v 0.12549999 0.68339998 -0.71420002
v 0.0805 0.66579998 -0.7263
v 0.074 0.66409999 -0.74860001
v 0.1096 0.68419999 -0.68370003
v 0.0637 0.66409999 -0.71030003
v -0.0027 0.66170001 -0.74860001
v 0.2272 0.75690001 -0.74860001
v 0.2227 0.7561 -0.6882
v 0.175 0.71259999 -0.70099998
v 0.18009999 0.71259999 -0.74860001
v 0.1964 0.75690001 -0.63370001
v 0.1557 0.71259999 -0.65719998
v 0.29769999 0.86739999 -0.74860001
v 0.29179999 0.86699998 -0.66970003
v 0.2633 0.80720001 -0.67729998
v 0.271 0.80720001 -0.74860001
v 0.25740001 0.86739999 -0.5984
v 0.2343 0.80720001 -0.61180001
v 0.3224 0.99769998 -0.74860001
v 0.31600001 0.99769998 -0.66320002
v 0.31110001 0.93080002 -0.6645
v 0.32010001 0.93080002 -0.74860001
v 0.27880001 0.99769998 -0.58609998
v 0.27680001 0.93080002 -0.58719999
v 0.29769999 1.12800002 -0.74860001
v 0.29179999 1.12839997 -0.66970003
v 0.31110001 1.06459999 -0.6645
v 0.32010001 1.06459999 -0.74860001
v 0.25740001 1.12800002 -0.5984
v 0.27680001 1.06459999 -0.58719999
v 0.2272 1.2385 -0.74860001
v 0.2227 1.23930001 -0.6882
v 0.2633 1.1882 -0.67729998
v 0.271 1.1882 -0.74860001
v 0.1964 1.2385 -0.63370001
v 0.2343 1.1882 -0.61180001
v 0.127 1.31120002 -0.74860001
v 0.12549999 1.31200004 -0.71420002
v 0.175 1.28279996 -0.70099998
v 0.18009999 1.28279996 -0.74860001
v 0.1096 1.31120002 -0.68370003
v 0.1557 1.28279996 -0.65719998
v -0.0027 1.33369994 -0.74860001
v 0.0637 1.33130002 -0.71030003
v 0.0805 1.32959998 -0.7263
v 0.074 1.33130002 -0.74860001
v 0.0912 0.68339998 -0.65469998
v 0.0582 0.66579998 -0.68769997
v 0.0622 0.68419999 -0.63630003
v 0.0356 0.66409999 -0.68220001
v 0.16230001 0.7561 -0.58359998
v 0.1274 0.71259999 -0.61849999
v 0.1122 0.75690001 -0.54949999
v 0.0887 0.71259999 -0.59020001
v 0.2129 0.86699998 -0.53299999
v 0.192 0.80720001 -0.5539
v 0.14749999 0.86739999 -0.4885
v 0.13410001 0.80720001 -0.51160002
v 0.2306 0.99769998 -0.51529998
v 0.227 0.93080002 -0.51889998
v 0.15979999 0.99769998 -0.46709999
v 0.1587 0.93080002 -0.4691
v 0.2129 1.12839997 -0.53299999
v 0.227 1.06459999 -0.51889998
v 0.14749999 1.12800002 -0.4885
v 0.1587 1.06459999 -0.4691
v 0.16230001 1.23930001 -0.58359998
v 0.192 1.1882 -0.5539
v 0.1122 1.2385 -0.54949999
v 0.13410001 1.1882 -0.51160002
v 0.0912 1.31200004 -0.65469998
v 0.1274 1.28279996 -0.61849999
v 0.0622 1.31120002 -0.63630003
v 0.0887 1.28279996 -0.59020001
v 0.0356 1.33130002 -0.68220001
v 0.0582 1.32959998 -0.68769997
v 0.0317 0.68339998 -0.62040001
v 0.0196 0.66579998 -0.66540003
v -0.0027 0.68419999 -0.6189
v -0.0027 0.66409999 -0.67189997
v 0.0577 0.7561 -0.52319998
v 0.0449 0.71259999 -0.57090002
v -0.0027 0.75690001 -0.5187
v -0.0027 0.71259999 -0.56580001
v 0.0762 0.86699998 -0.45410001
v 0.0686 0.80720001 -0.4826
v -0.0027 0.86739999 -0.44819999
v -0.0027 0.80720001 -0.47490001
v 0.0827 0.99769998 -0.42989999
v 0.0814 0.93080002 -0.4348
v -0.0027 0.99769998 -0.4235
v -0.0027 0.93080002 -0.4258
v 0.0762 1.12839997 -0.45410001
v 0.0814 1.06459999 -0.4348
v -0.0027 1.12800002 -0.44819999
v -0.0027 1.06459999 -0.4258
v 0.0577 1.23930001 -0.52319998
v 0.0686 1.1882 -0.4826
v -0.0027 1.2385 -0.5187
v -0.0027 1.1882 -0.47490001
v 0.0317 1.31200004 -0.62040001
v 0.0449 1.28279996 -0.57090002
v -0.0027 1.31120002 -0.6189
v -0.0027 1.28279996 -0.56580001
v -0.0027 1.33130002 -0.67189997
v 0.0196 1.32959998 -0.66540003
v -0.0371 0.68339998 -0.62040001
v -0.025 0.66579998 -0.66540003
v -0.0676 0.68419999 -0.63630003
v -0.041 0.66409999 -0.68220001
v -0.0631 0.7561 -0.52319998
v -0.0503 0.71259999 -0.57090002
v -0.1176 0.75690001 -0.54949999
v -0.0941 0.71259999 -0.59020001
v -0.0816 0.86699998 -0.45410001
v -0.074 0.80720001 -0.4826
v -0.1529 0.86739999 -0.4885
v -0.13950001 0.80720001 -0.51160002
v -0.0881 0.99769998 -0.42989999
v -0.0868 0.93080002 -0.4348
v -0.1652 0.99769998 -0.46709999
v -0.16410001 0.93080002 -0.4691
v -0.0816 1.12839997 -0.45410001
v -0.0868 1.06459999 -0.4348
v -0.1529 1.12800002 -0.4885
v -0.16410001 1.06459999 -0.4691
v -0.0631 1.23930001 -0.52319998
v -0.074 1.1882 -0.4826
v -0.1176 1.2385 -0.54949999
v -0.13950001 1.1882 -0.51160002
v -0.0371 1.31200004 -0.62040001
v -0.0503 1.28279996 -0.57090002
v -0.0676 1.31120002 -0.63630003
v -0.0941 1.28279996 -0.59020001
v -0.041 1.33130002 -0.68220001
v -0.025 1.32959998 -0.66540003
v -0.0966 0.68339998 -0.65469998
v -0.0636 0.66579998 -0.68769997
v -0.115 0.68419999 -0.68370003
v -0.0691 0.66409999 -0.71030003
v -0.16769999 0.7561 -0.58359998
v -0.1328 0.71259999 -0.61849999
v -0.2018 0.75690001 -0.63370001
v -0.1611 0.71259999 -0.65719998
v -0.2183 0.86699998 -0.53299999
v -0.1974 0.80720001 -0.5539
v -0.26280001 0.86739999 -0.5984
v -0.2397 0.80720001 -0.61180001
v -0.236 0.99769998 -0.51529998
v -0.2324 0.93080002 -0.51889998
v -0.28420001 0.99769998 -0.58609998
v -0.28220001 0.93080002 -0.58719999
v -0.2183 1.12839997 -0.53299999
v -0.2324 1.06459999 -0.51889998
v -0.26280001 1.12800002 -0.5984
v -0.28220001 1.06459999 -0.58719999
v -0.16769999 1.23930001 -0.58359998
v -0.1974 1.1882 -0.5539
v -0.2018 1.2385 -0.63370001
v -0.2397 1.1882 -0.61180001
v -0.0966 1.31200004 -0.65469998
v -0.1328 1.28279996 -0.61849999
v -0.115 1.31120002 -0.68370003
v -0.1611 1.28279996 -0.65719998
v -0.0691 1.33130002 -0.71030003
v -0.0636 1.32959998 -0.68769997
v -0.1309 0.68339998 -0.71420002
v -0.0859 0.66579998 -0.7263
v -0.13240001 0.68419999 -0.74860001
v -0.0794 0.66409999 -0.74860001
v -0.2281 0.7561 -0.6882
v -0.1804 0.71259999 -0.70099998
v -0.2326 0.75690001 -0.74860001
v -0.1855 0.71259999 -0.74860001
v -0.29719999 0.86699998 -0.66970003
v -0.2687 0.80720001 -0.67729998
v -0.30309999 0.86739999 -0.74860001
v -0.2764 0.80720001 -0.74860001
v -0.32139999 0.99769998 -0.66320002
v -0.31650001 0.93080002 -0.6645
v -0.32780001 0.99769998 -0.74860001
v -0.32550001 0.93080002 -0.74860001
v -0.29719999 1.12839997 -0.66970003
v -0.31650001 1.06459999 -0.6645
v -0.30309999 1.12800002 -0.74860001
v -0.32550001 1.06459999 -0.74860001
v -0.2281 1.23930001 -0.6882
v -0.2687 1.1882 -0.67729998
v -0.2326 1.2385 -0.74860001
v -0.2764 1.1882 -0.74860001
v -0.1309 1.31200004 -0.71420002
v -0.1804 1.28279996 -0.70099998
v -0.13240001 1.31120002 -0.74860001
v -0.1855 1.28279996 -0.74860001
v -0.0794 1.33130002 -0.74860001
v -0.0859 1.32959998 -0.7263
v -0.1309 0.68339998 -0.78299999
v -0.0859 0.66579998 -0.77090001
v -0.115 0.68419999 -0.81349999
v -0.0691 0.66409999 -0.78689998
v -0.2281 0.7561 -0.80900002
v -0.1804 0.71259999 -0.79619998
v -0.2018 0.75690001 -0.8635
v -0.1611 0.71259999 -0.83999997
v -0.29719999 0.86699998 -0.82749999
v -0.2687 0.80720001 -0.81989998
v -0.26280001 0.86739999 -0.89880002
v -0.2397 0.80720001 -0.8854
v -0.32139999 0.99769998 -0.83399999
v -0.31650001 0.93080002 -0.83270001
v -0.28420001 0.99769998 -0.91109997
v -0.28220001 0.93080002 -0.91000003
v -0.29719999 1.12839997 -0.82749999
v -0.31650001 1.06459999 -0.83270001
v -0.26280001 1.12800002 -0.89880002
v -0.28220001 1.06459999 -0.91000003
v -0.2281 1.23930001 -0.80900002
v -0.2687 1.1882 -0.81989998
v -0.2018 1.2385 -0.8635
v -0.2397 1.1882 -0.8854
v -0.1309 1.31200004 -0.78299999
v -0.1804 1.28279996 -0.79619998
v -0.115 1.31120002 -0.81349999
v -0.1611 1.28279996 -0.83999997
v -0.0691 1.33130002 -0.78689998
v -0.0859 1.32959998 -0.77090001
v -0.0966 0.68339998 -0.84249997
v -0.0636 0.66579998 -0.80949998
v -0.0676 0.68419999 -0.86089998
v -0.041 0.66409999 -0.815
v -0.16769999 0.7561 -0.91360003
v -0.1328 0.71259999 -0.87870002
v -0.1176 0.75690001 -0.94770002
v -0.0941 0.71259999 -0.90700001
v -0.2183 0.86699998 -0.96420002
v -0.1974 0.80720001 -0.94330001
v -0.1529 0.86739999 -1.00870001
v -0.13950001 0.80720001 -0.98559999
v -0.236 0.99769998 -0.98189998
v -0.2324 0.93080002 -0.97829998
v -0.1652 0.99769998 -1.03009999
v -0.16410001 0.93080002 -1.02810001
v -0.2183 1.12839997 -0.96420002
v -0.2324 1.06459999 -0.97829998
v -0.1529 1.12800002 -1.00870001
v -0.16410001 1.06459999 -1.02810001
v -0.16769999 1.23930001 -0.91360003
v -0.1974 1.1882 -0.94330001
v -0.1176 1.2385 -0.94770002
v -0.13950001 1.1882 -0.98559999
v -0.0966 1.31200004 -0.84249997
v -0.1328 1.28279996 -0.87870002
v -0.0676 1.31120002 -0.86089998
v -0.0941 1.28279996 -0.90700001
v -0.041 1.33130002 -0.815
v -0.0636 1.32959998 -0.80949998
v -0.0371 0.68339998 -0.8768
v -0.025 0.66579998 -0.83179998
v -0.0027 0.68419999 -0.87830001
v -0.0027 0.66409999 -0.82529998
v -0.0631 0.7561 -0.97399998
v -0.0503 0.71259999 -0.92629999
v -0.0027 0.75690001 -0.97850001
v -0.0027 0.71259999 -0.9314
v -0.0816 0.86699998 -1.0431
v -0.074 0.80720001 -1.01460004
v -0.0027 0.86739999 -1.04900002
v -0.0027 0.80720001 -1.0223
v -0.0881 0.99769998 -1.06729996
v -0.0868 0.93080002 -1.06239998
v -0.0027 0.99769998 -1.07369995
v -0.0027 0.93080002 -1.07140005
v -0.0816 1.12839997 -1.0431
v -0.0868 1.06459999 -1.06239998
v -0.0027 1.12800002 -1.04900002
v -0.0027 1.06459999 -1.07140005
v -0.0631 1.23930001 -0.97399998
v -0.074 1.1882 -1.01460004
v -0.0027 1.2385 -0.97850001
v -0.0027 1.1882 -1.0223
v -0.0371 1.31200004 -0.8768
v -0.0503 1.28279996 -0.92629999
v -0.0027 1.31120002 -0.87830001
v -0.0027 1.28279996 -0.9314
v -0.0027 1.33130002 -0.82529998
v -0.025 1.32959998 -0.83179998
v 0.0317 0.68339998 -0.8768
v 0.0196 0.66579998 -0.83179998
v 0.0622 0.68419999 -0.86089998
v 0.0356 0.66409999 -0.815
v 0.0577 0.7561 -0.97399998
v 0.0449 0.71259999 -0.92629999
v 0.1122 0.75690001 -0.94770002
v 0.0887 0.71259999 -0.90700001
v 0.0762 0.86699998 -1.0431
v 0.0686 0.80720001 -1.01460004
v 0.14749999 0.86739999 -1.00870001
v 0.13410001 0.80720001 -0.98559999
v 0.0827 0.99769998 -1.06729996
v 0.0814 0.93080002 -1.06239998
v 0.15979999 0.99769998 -1.03009999
v 0.1587 0.93080002 -1.02810001
v 0.0762 1.12839997 -1.0431
v 0.0814 1.06459999 -1.06239998
v 0.14749999 1.12800002 -1.00870001
v 0.1587 1.06459999 -1.02810001
v 0.0577 1.23930001 -0.97399998
v 0.0686 1.1882 -1.01460004
v 0.1122 1.2385 -0.94770002
v 0.13410001 1.1882 -0.98559999
v 0.0317 1.31200004 -0.8768
v 0.0449 1.28279996 -0.92629999
v 0.0622 1.31120002 -0.86089998
v 0.0887 1.28279996 -0.90700001
v 0.0356 1.33130002 -0.815
v 0.0196 1.32959998 -0.83179998
v 0.0912 0.68339998 -0.84249997
v 0.0582 0.66579998 -0.80949998
v 0.1096 0.68419999 -0.81349999
v 0.0637 0.66409999 -0.78689998
v 0.16230001 0.7561 -0.91360003
v 0.1274 0.71259999 -0.87870002
v 0.1964 0.75690001 -0.8635
v 0.1557 0.71259999 -0.83999997
v 0.2129 0.86699998 -0.96420002
v 0.192 0.80720001 -0.94330001
v 0.25740001 0.86739999 -0.89880002
v 0.2343 0.80720001 -0.8854
v 0.2306 0.99769998 -0.98189998
v 0.227 0.93080002 -0.97829998
v 0.27880001 0.99769998 -0.91109997
v 0.27680001 0.93080002 -0.91000003
v 0.2129 1.12839997 -0.96420002
v 0.227 1.06459999 -0.97829998
v 0.25740001 1.12800002 -0.89880002
v 0.27680001 1.06459999 -0.91000003
v 0.16230001 1.23930001 -0.91360003
v 0.192 1.1882 -0.94330001
v 0.1964 1.2385 -0.8635
v 0.2343 1.1882 -0.8854
v 0.0912 1.31200004 -0.84249997
v 0.1274 1.28279996 -0.87870002
v 0.1096 1.31120002 -0.81349999
v 0.1557 1.28279996 -0.83999997
v 0.0637 1.33130002 -0.78689998
v 0.0582 1.32959998 -0.80949998
v 0.12549999 0.68339998 -0.78299999
v 0.0805 0.66579998 -0.77090001
v 0.2227 0.7561 -0.80900002
v 0.175 0.71259999 -0.79619998
v 0.29179999 0.86699998 -0.82749999
v 0.2633 0.80720001 -0.81989998
v 0.31600001 0.99769998 -0.83399999
v 0.31110001 0.93080002 -0.83270001
v 0.29179999 1.12839997 -0.82749999
v 0.31110001 1.06459999 -0.83270001
v 0.2227 1.23930001 -0.80900002
v 0.2633 1.1882 -0.81989998
v 0.12549999 1.31200004 -0.78299999
v 0.175 1.28279996 -0.79619998
v 0.0805 1.32959998 -0.77090001
usemtl mat1
f 1 2 3
f 1 3 4
f 5 6 3
f 5 3 2
f 7 4 3
f 7 3 6
f 8 9 10
f 8 10 11
f 12 13 10
f 12 10 9
f 5 2 10
f 5 10 13
f 1 11 10
f 1 10 2
f 14 15 16
f 14 16 17
f 18 19 16
f 18 16 15
f 12 9 16
f 12 16 19
f 8 17 16
f 8 16 9
f 20 21 22
f 20 22 23
f 24 25 22
f 24 22 21
f 18 15 22
f 18 22 25
f 14 23 22
f 14 22 15
f 26 27 28
f 26 28 29
f 30 31 28
f 30 28 27
f 24 21 28
f 24 28 31
f 20 29 28
f 20 28 21
f 32 33 34
f 32 34 35
f 36 37 34
f 36 34 33
f 30 27 34
f 30 34 37
f 26 35 34
f 26 34 27
f 38 39 40
f 38 40 41
f 42 43 40
f 42 40 39
f 36 33 40
f 36 40 43
f 32 41 40
f 32 40 33
f 44 45 46
f 44 46 47
f 42 39 46
f 42 46 45
f 38 47 46
f 38 46 39
f 5 48 49
f 5 49 6
f 50 51 49
f 50 49 48
f 7 6 49
f 7 49 51
f 12 52 53
f 12 53 13
f 54 55 53
f 54 53 52
f 50 48 53
f 50 53 55
f 5 13 53
f 5 53 48
f 18 56 57
f 18 57 19
f 58 59 57
f 58 57 56
f 54 52 57
f 54 57 59
f 12 19 57
f 12 57 52
f 24 60 61
f 24 61 25
f 62 63 61
f 62 61 60
f 58 56 61
f 58 61 63
f 18 25 61
f 18 61 56
f 30 64 65
f 30 65 31
f 66 67 65
f 66 65 64
f 62 60 65
f 62 65 67
f 24 31 65
f 24 65 60
f 36 68 69
f 36 69 37
f 70 71 69
f 70 69 68
f 66 64 69
f 66 69 71
f 30 37 69
f 30 69 64
f 42 72 73
f 42 73 43
f 74 75 73
f 74 73 72
f 70 68 73
f 70 73 75
f 36 43 73
f 36 73 68
f 44 76 77
f 44 77 45
f 74 72 77
f 74 77 76
f 42 45 77
f 42 77 72
f 50 78 79
f 50 79 51
f 80 81 79
f 80 79 78
f 7 51 79
f 7 79 81
f 54 82 83
f 54 83 55
f 84 85 83
f 84 83 82
f 80 78 83
f 80 83 85
f 50 55 83
f 50 83 78
f 58 86 87
f 58 87 59
f 88 89 87
f 88 87 86
f 84 82 87
f 84 87 89
f 54 59 87
f 54 87 82
f 62 90 91
f 62 91 63
f 92 93 91
f 92 91 90
f 88 86 91
f 88 91 93
f 58 63 91
f 58 91 86
f 66 94 95
f 66 95 67
f 96 97 95
f 96 95 94
f 92 90 95
f 92 95 97
f 62 67 95
f 62 95 90
f 70 98 99
f 70 99 71
f 100 101 99
f 100 99 98
f 96 94 99
f 96 99 101
f 66 71 99
f 66 99 94
f 74 102 103
f 74 103 75
f 104 105 103
f 104 103 102
f 100 98 103
f 100 103 105
f 70 75 103
f 70 103 98
f 44 106 107
f 44 107 76
f 104 102 107
f 104 107 106
f 74 76 107
f 74 107 102
f 80 108 109
f 80 109 81
f 110 111 109
f 110 109 108
f 7 81 109
f 7 109 111
f 84 112 113
f 84 113 85
f 114 115 113
f 114 113 112
f 110 108 113
f 110 113 115
f 80 85 113
f 80 113 108
f 88 116 117
f 88 117 89
f 118 119 117
f 118 117 116
f 114 112 117
f 114 117 119
f 84 89 117
f 84 117 112
f 92 120 121
f 92 121 93
f 122 123 121
f 122 121 120
f 118 116 121
f 118 121 123
f 88 93 121
f 88 121 116
f 96 124 125
f 96 125 97
f 126 127 125
f 126 125 124
f 122 120 125
f 122 125 127
f 92 97 125
f 92 125 120
f 100 128 129
f 100 129 101
f 130 131 129
f 130 129 128
f 126 124 129
f 126 129 131
f 96 101 129
f 96 129 124
f 104 132 133
f 104 133 105
f 134 135 133
f 134 133 132
f 130 128 133
f 130 133 135
f 100 105 133
f 100 133 128
f 44 136 137
f 44 137 106
f 134 132 137
f 134 137 136
f 104 106 137
f 104 137 132
f 110 138 139
f 110 139 111
f 140 141 139
f 140 139 138
f 7 111 139
f 7 139 141
f 114 142 143
f 114 143 115
f 144 145 143
f 144 143 142
f 140 138 143
f 140 143 145
f 110 115 143
f 110 143 138
f 118 146 147
f 118 147 119
f 148 149 147
f 148 147 146
f 144 142 147
f 144 147 149
f 114 119 147
f 114 147 142
f 122 150 151
f 122 151 123
f 152 153 151
f 152 151 150
f 148 146 151
f 148 151 153
f 118 123 151
f 118 151 146
f 126 154 155
f 126 155 127
f 156 157 155
f 156 155 154
f 152 150 155
f 152 155 157
f 122 127 155
f 122 155 150
f 130 158 159
f 130 159 131
f 160 161 159
f 160 159 158
f 156 154 159
f 156 159 161
f 126 131 159
f 126 159 154
f 134 162 163
f 134 163 135
f 164 165 163
f 164 163 162
f 160 158 163
f 160 163 165
f 130 135 163
f 130 163 158
f 44 166 167
f 44 167 136
f 164 162 167
f 164 167 166
f 134 136 167
f 134 167 162
f 140 168 169
f 140 169 141
f 170 171 169
f 170 169 168
f 7 141 169
f 7 169 171
f 144 172 173
f 144 173 145
f 174 175 173
f 174 173 172
f 170 168 173
f 170 173 175
f 140 145 173
f 140 173 168
f 148 176 177
f 148 177 149
f 178 179 177
f 178 177 176
f 174 172 177
f 174 177 179
f 144 149 177
f 144 177 172
f 152 180 181
f 152 181 153
f 182 183 181
f 182 181 180
f 178 176 181
f 178 181 183
f 148 153 181
f 148 181 176
f 156 184 185
f 156 185 157
f 186 187 185
f 186 185 184
f 182 180 185
f 182 185 187
f 152 157 185
f 152 185 180
f 160 188 189
f 160 189 161
f 190 191 189
f 190 189 188
f 186 184 189
f 186 189 191
f 156 161 189
f 156 189 184
f 164 192 193
f 164 193 165
f 194 195 193
f 194 193 192
f 190 188 193
f 190 193 195
f 160 165 193
f 160 193 188
f 44 196 197
f 44 197 166
f 194 192 197
f 194 197 196
f 164 166 197
f 164 197 192
f 170 198 199
f 170 199 171
f 200 201 199
f 200 199 198
f 7 171 199
f 7 199 201
f 174 202 203
f 174 203 175
f 204 205 203
f 204 203 202
f 200 198 203
f 200 203 205
f 170 175 203
f 170 203 198
f 178 206 207
f 178 207 179
f 208 209 207
f 208 207 206
f 204 202 207
f 204 207 209
f 174 179 207
f 174 207 202
f 182 210 211
f 182 211 183
f 212 213 211
f 212 211 210
f 208 206 211
f 208 211 213
f 178 183 211
f 178 211 206
f 186 214 215
f 186 215 187
f 216 217 215
f 216 215 214
f 212 210 215
f 212 215 217
f 182 187 215
f 182 215 210
f 190 218 219
f 190 219 191
f 220 221 219
f 220 219 218
f 216 214 219
f 216 219 221
f 186 191 219
f 186 219 214
f 194 222 223
f 194 223 195
f 224 225 223
f 224 223 222
f 220 218 223
f 220 223 225
f 190 195 223
f 190 223 218
f 44 226 227
f 44 227 196
f 224 222 227
f 224 227 226
f 194 196 227
f 194 227 222
f 200 228 229
f 200 229 201
f 230 231 229
f 230 229 228
f 7 201 229
f 7 229 231
f 204 232 233
f 204 233 205
f 234 235 233
f 234 233 232
f 230 228 233
f 230 233 235
f 200 205 233
f 200 233 228
f 208 236 237
f 208 237 209
f 238 239 237
f 238 237 236
f 234 232 237
f 234 237 239
f 204 209 237
f 204 237 232
f 212 240 241
f 212 241 213
f 242 243 241
f 242 241 240
f 238 236 241
f 238 241 243
f 208 213 241
f 208 241 236
f 216 244 245
f 216 245 217
f 246 247 245
f 246 245 244
f 242 240 245
f 242 245 247
f 212 217 245
f 212 245 240
f 220 248 249
f 220 249 221
f 250 251 249
f 250 249 248
f 246 244 249
f 246 249 251
f 216 221 249
f 216 249 244
f 224 252 253
f 224 253 225
f 254 255 253
f 254 253 252
f 250 248 253
f 250 253 255
f 220 225 253
f 220 253 248
f 44 256 257
f 44 257 226
f 254 252 257
f 254 257 256
f 224 226 257
f 224 257 252
f 230 258 259
f 230 259 231
f 260 261 259
f 260 259 258
f 7 231 259
f 7 259 261
f 234 262 263
f 234 263 235
f 264 265 263
f 264 263 262
f 260 258 263
f 260 263 265
f 230 235 263
f 230 263 258
f 238 266 267
f 238 267 239
f 268 269 267
f 268 267 266
f 264 262 267
f 264 267 269
f 234 239 267
f 234 267 262
f 242 270 271
f 242 271 243
f 272 273 271
f 272 271 270
f 268 266 271
f 268 271 273
f 238 243 271
f 238 271 266
f 246 274 275
f 246 275 247
f 276 277 275
f 276 275 274
f 272 270 275
f 272 275 277
f 242 247 275
f 242 275 270
f 250 278 279
f 250 279 251
f 280 281 279
f 280 279 278
f 276 274 279
f 276 279 281
f 246 251 279
f 246 279 274
f 254 282 283
f 254 283 255
f 284 285 283
f 284 283 282
f 280 278 283
f 280 283 285
f 250 255 283
f 250 283 278
f 44 286 287
f 44 287 256
f 284 282 287
f 284 287 286
f 254 256 287
f 254 287 282
f 260 288 289
f 260 289 261
f 290 291 289
f 290 289 288
f 7 261 289
f 7 289 291
f 264 292 293
f 264 293 265
f 294 295 293
f 294 293 292
f 290 288 293
f 290 293 295
f 260 265 293
f 260 293 288
f 268 296 297
f 268 297 269
f 298 299 297
f 298 297 296
f 294 292 297
f 294 297 299
f 264 269 297
f 264 297 292
f 272 300 301
f 272 301 273
f 302 303 301
f 302 301 300
f 298 296 301
f 298 301 303
f 268 273 301
f 268 301 296
f 276 304 305
f 276 305 277
f 306 307 305
f 306 305 304
f 302 300 305
f 302 305 307
f 272 277 305
f 272 305 300
f 280 308 309
f 280 309 281
f 310 311 309
f 310 309 308
f 306 304 309
f 306 309 311
f 276 281 309
f 276 309 304
f 284 312 313
f 284 313 285
f 314 315 313
f 314 313 312
f 310 308 313
f 310 313 315
f 280 285 313
f 280 313 308
f 44 316 317
f 44 317 286
f 314 312 317
f 314 317 316
f 284 286 317
f 284 317 312
f 290 318 319
f 290 319 291
f 320 321 319
f 320 319 318
f 7 291 319
f 7 319 321
f 294 322 323
f 294 323 295
f 324 325 323
f 324 323 322
f 320 318 323
f 320 323 325
f 290 295 323
f 290 323 318
f 298 326 327
f 298 327 299
f 328 329 327
f 328 327 326
f 324 322 327
f 324 327 329
f 294 299 327
f 294 327 322
f 302 330 331
f 302 331 303
f 332 333 331
f 332 331 330
f 328 326 331
f 328 331 333
f 298 303 331
f 298 331 326
f 306 334 335
f 306 335 307
f 336 337 335
f 336 335 334
f 332 330 335
f 332 335 337
f 302 307 335
f 302 335 330
f 310 338 339
f 310 339 311
f 340 341 339
f 340 339 338
f 336 334 339
f 336 339 341
f 306 311 339
f 306 339 334
f 314 342 343
f 314 343 315
f 344 345 343
f 344 343 342
f 340 338 343
f 340 343 345
f 310 315 343
f 310 343 338
f 44 346 347
f 44 347 316
f 344 342 347
f 344 347 346
f 314 316 347
f 314 347 342
f 320 348 349
f 320 349 321
f 1 4 349
f 1 349 348
f 7 321 349
f 7 349 4
f 324 350 351
f 324 351 325
f 8 11 351
f 8 351 350
f 1 348 351
f 1 351 11
f 320 325 351
f 320 351 348
f 328 352 353
f 328 353 329
f 14 17 353
f 14 353 352
f 8 350 353
f 8 353 17
f 324 329 353
f 324 353 350
f 332 354 355
f 332 355 333
f 20 23 355
f 20 355 354
f 14 352 355
f 14 355 23
f 328 333 355
f 328 355 352
f 336 356 357
f 336 357 337
f 26 29 357
f 26 357 356
f 20 354 357
f 20 357 29
f 332 337 357
f 332 357 354
f 340 358 359
f 340 359 341
f 32 35 359
f 32 359 358
f 26 356 359
f 26 359 35
f 336 341 359
f 336 359 356
f 344 360 361
f 344 361 345
f 38 41 361
f 38 361 360
f 32 358 361
f 32 361 41
f 340 345 361
f 340 361 358
f 44 47 362
f 44 362 346
f 38 360 362
f 38 362 47
f 344 346 362
f 344 362 360
# Vertices: 362, normals: 0, texture coordinates: 0, faces: 720

o obj2
v 0.0947 0.99949998 0.49540001
v 0.0918 1.02289999 0.49540001
v 0.0006 0.99949998 0.49540001
v 0.0947 0.99949998 -0.50459999
v 0.0918 1.02289999 -0.50459999
v 0.0006 0.99949998 -0.50459999
v 0.0831 1.04480004 0.49540001
v 0.0831 1.04480004 -0.50459999
v 0.0692 1.06389999 0.49540001
v 0.0692 1.06389999 -0.50459999
v 0.051 1.079 0.49540001
v 0.051 1.079 -0.50459999
v 0.0297 1.08899999 0.49540001
v 0.0297 1.08899999 -0.50459999
v 0.0065 1.0934 0.49540001
v 0.0065 1.0934 -0.50459999
v -0.017 1.09200001 0.49540001
v -0.017 1.09200001 -0.50459999
v -0.0395 1.08469999 0.49540001
v -0.0395 1.08469999 -0.50459999
v -0.0594 1.07200003 0.49540001
v -0.0594 1.07200003 -0.50459999
v -0.0755 1.05480003 0.49540001
v -0.0755 1.05480003 -0.50459999
v -0.0869 1.03410006 0.49540001
v -0.0869 1.03410006 -0.50459999
v -0.0928 1.01129997 0.49540001
v -0.0928 1.01129997 -0.50459999
v -0.0928 0.98769999 0.49540001
v -0.0928 0.98769999 -0.50459999
v -0.0869 0.96490002 0.49540001
v -0.0869 0.96490002 -0.50459999
v -0.0755 0.94419998 0.49540001
v -0.0755 0.94419998 -0.50459999
v -0.0594 0.92699999 0.49540001
v -0.0594 0.92699999 -0.50459999
v -0.0395 0.91430002 0.49540001
v -0.0395 0.91430002 -0.50459999
v -0.017 0.90700001 0.49540001
v -0.017 0.90700001 -0.50459999
v 0.0065 0.90560001 0.49540001
v 0.0065 0.90560001 -0.50459999
v 0.0297 0.91000003 0.49540001
v 0.0297 0.91000003 -0.50459999
v 0.051 0.92000002 0.49540001
v 0.051 0.92000002 -0.50459999
v 0.0692 0.93510002 0.49540001
v 0.0692 0.93510002 -0.50459999
v 0.0831 0.95420003 0.49540001
v 0.0831 0.95420003 -0.50459999
v 0.0918 0.97610003 0.49540001
v 0.0918 0.97610003 -0.50459999
usemtl mat1
f 363 364 365
f 366 367 364
f 366 364 363
f 368 367 366
f 364 369 365
f 367 370 369
f 367 369 364
f 368 370 367
f 369 371 365
f 370 372 371
f 370 371 369
f 368 372 370
f 371 373 365
f 372 374 373
f 372 373 371
f 368 374 372
f 373 375 365
f 374 376 375
f 374 375 373
f 368 376 374
f 375 377 365
f 376 378 377
f 376 377 375
f 368 378 376
f 377 379 365
f 378 380 379
f 378 379 377
f 368 380 378
f 379 381 365
f 380 382 381
f 380 381 379
f 368 382 380
f 381 383 365
f 382 384 383
f 382 383 381
f 368 384 382
f 383 385 365
f 384 386 385
f 384 385 383
f 368 386 384
f 385 387 365
f 386 388 387
f 386 387 385
f 368 388 386
f 387 389 365
f 388 390 389
f 388 389 387
f 368 390 388
f 389 391 365
f 390 392 391
f 390 391 389
f 368 392 390
f 391 393 365
f 392 394 393
f 392 393 391
f 368 394 392
f 393 395 365
f 394 396 395
f 394 395 393
f 368 396 394
f 395 397 365
f 396 398 397
f 396 397 395
f 368 398 396
f 397 399 365
f 398 400 399
f 398 399 397
f 368 400 398
f 399 401 365
f 400 402 401
f 400 401 399
f 368 402 400
f 401 403 365
f 402 404 403
f 402 403 401
f 368 404 402
f 403 405 365
f 404 406 405
f 404 405 403
f 368 406 404
f 405 407 365
f 406 408 407
f 406 407 405
f 368 408 406
f 407 409 365
f 408 410 409
f 408 409 407
f 368 410 408
f 409 411 365
f 410 412 411
f 410 411 409
f 368 412 410
f 411 413 365
f 412 414 413
f 412 413 411
f 368 414 412
f 413 363 365
f 414 366 363
f 414 363 413
f 368 366 414
# Vertices: 52, normals: 0, texture coordinates: 0, faces: 100

o obj3
v 0.3838 0.99669999 0.38440001
v 0.37220001 0.90450001 0.38440001
v 0.0133 0.99669999 0.38440001
v 0.0133 0.99669999 1.12539995
v 0.338 0.81819999 0.38440001
v 0.2834 0.74299997 0.38440001
v 0.21179999 0.68379998 0.38440001
v 0.1278 0.64429998 0.38440001
v 0.0366 0.62690002 0.38440001
v -0.0561 0.63270003 0.38440001
v -0.1445 0.66140002 0.38440001
v -0.2229 0.7112 0.38440001
v -0.28650001 0.77890003 0.38440001
v -0.3312 0.8603 0.38440001
v -0.35429999 0.95020002 0.38440001
v -0.35429999 1.0431 0.38440001
v -0.3312 1.13310003 0.38440001
v -0.28650001 1.21440005 0.38440001
v -0.2229 1.28219998 0.38440001
v -0.1445 1.3319 0.38440001
v -0.0561 1.36059999 0.38440001
v 0.0366 1.36650002 0.38440001
v 0.1278 1.34899998 0.38440001
v 0.21179999 1.30949998 0.38440001
v 0.2834 1.25030005 0.38440001
v 0.338 1.17519999 0.38440001
v 0.37220001 1.08879995 0.38440001
usemtl mat1
f 415 416 417
f 418 416 415
f 416 419 417
f 418 419 416
f 419 420 417
f 418 420 419
f 420 421 417
f 418 421 420
f 421 422 417
f 418 422 421
f 422 423 417
f 418 423 422
f 423 424 417
f 418 424 423
f 424 425 417
f 418 425 424
f 425 426 417
f 418 426 425
f 426 427 417
f 418 427 426
f 427 428 417
f 418 428 427
f 428 429 417
f 418 429 428
f 429 430 417
f 418 430 429
f 430 431 417
f 418 431 430
f 431 432 417
f 418 432 431
f 432 433 417
f 418 433 432
f 433 434 417
f 418 434 433
f 434 435 417
f 418 435 434
f 435 436 417
f 418 436 435
f 436 437 417
f 418 437 436
f 437 438 417
f 418 438 437
f 438 439 417
f 418 439 438
f 439 440 417
f 418 440 439
f 440 441 417
f 418 441 440
f 441 415 417
f 418 415 441
# Vertices: 27, normals: 0, texture coordinates: 0, faces: 50

